<?xml version="1.0"?>
<svg xmlns="http://www.w3.org/2000/svg" height="512px" viewBox="-7 0 429 429.5" width="512px" class=""><g><path d="m241.148438 88.699219c0 48.988281-39.710938 88.699219-88.699219 88.699219s-88.699219-39.710938-88.699219-88.699219 39.710938-88.699219 88.699219-88.699219 88.699219 39.710938 88.699219 88.699219zm0 0" data-original="#000000" class="active-path" data-old_color="#000000" fill="#1F6912"/><path d="m245.449219 266.800781c-26.5-20.699219-58.597657-31.601562-92.800781-31.601562h-.296876c-41.101562.101562-79.402343 16.101562-107.703124 45.101562-27.199219 28-42.898438 65.699219-44.398438 107l262.898438-.5c-11.601563-19.511719-17.71875-41.796875-17.699219-64.5zm0 0" data-original="#000000" class="active-path" data-old_color="#000000" fill="#1F6912"/><path d="m259.449219 266.5v55.800781c.046875 44.824219 26.617187 85.371094 67.699219 103.300781l8.800781 3.898438 10.300781-4.5c41.875-17.535156 69.121094-58.503906 69.101562-103.898438v-54.601562l-79.101562-42.199219zm122.800781 35c2.425781 2.984375 1.980469 7.367188-1 9.800781l-52.800781 42.898438c-1.230469 1.035156-2.789063 1.601562-4.398438 1.601562-2.058593.019531-4.011719-.898437-5.300781-2.5l-22.699219-26.5c-2.515625-2.957031-2.15625-7.386719.800781-9.902343 2.953126-2.511719 7.386719-2.152344 9.898438.800781l18.199219 21.300781 47.5-38.601562c3.027343-2.34375 7.367187-1.855469 9.800781 1.101562zm0 0" data-original="#000000" class="active-path" data-old_color="#000000" fill="#1F6912"/></g> </svg>
