<?xml version="1.0"?>
<svg xmlns="http://www.w3.org/2000/svg" xmlns:xlink="http://www.w3.org/1999/xlink" version="1.1" id="Capa_1" x="0px" y="0px" viewBox="0 0 512 512" style="enable-background:new 0 0 512 512;" xml:space="preserve" width="512px" height="512px" class=""><g><g>
	<g>
		<path style="fill:#78BAF6;" d="M173.439,176.571H79.05c-11.741,0-21.26,9.518-21.26,21.26v285.41    c0,11.741,9.518,21.26,21.26,21.26h94.39c11.741,0,21.26-9.518,21.26-21.26v-285.41    C194.699,186.089,185.181,176.571,173.439,176.571z" data-original="#78BAF6"/>
		<path style="fill:#1885DA;" d="M173.44,176.571h-25.536c11.741,0,21.26,9.518,21.26,21.26v285.41    c0,11.741-9.518,21.26-21.26,21.26h25.536c11.741,0,21.26-9.518,21.26-21.26v-285.41    C194.699,186.089,185.181,176.571,173.44,176.571z" data-original="#1885DA"/>
		<path style="fill:#D8E6F0;" d="M105.742,78.127h41.006c4.578,0,8.289,3.711,8.289,8.289v65.439H97.452V86.417    C97.452,81.839,101.163,78.127,105.742,78.127z" data-original="#D8E6F0"/>
		<path style="fill:#AAC0D1;" d="M146.748,78.127h-17.126c4.578,0,8.289,3.711,8.289,8.289v65.439h17.126V86.417    C155.037,81.839,151.326,78.127,146.748,78.127z" data-original="#AAC0D1"/>
		<path style="fill:#AAC0D1;" d="M87.217,151.856h78.055c2.774,0,5.022,2.248,5.022,5.022v19.693H82.195v-19.693    C82.195,154.104,84.444,151.856,87.217,151.856z" data-original="#AAC0D1"/>
		<path style="fill:#8DA5B5;" d="M165.272,151.856h-23.631c2.774,0,5.022,2.248,5.022,5.022v19.693h23.631v-19.693    C170.294,154.104,168.046,151.856,165.272,151.856z" data-original="#8DA5B5"/>
		<rect x="57.79" y="256.761" style="fill:#D8E6F0;" width="136.909" height="87.573" data-original="#D8E6F0"/>
		<rect x="169.163" y="256.76" style="fill:#AAC0D1;" width="25.536" height="87.573" data-original="#AAC0D1"/>
	</g>
	<g>
		<path style="fill:#FEE9A1;" d="M433.964,172.427v304.567c0,15.192-12.315,27.507-27.507,27.507H249.509    c-15.192,0-27.507-12.315-27.507-27.507V172.427c0-23.275,18.868-42.143,42.143-42.143h127.675    C415.096,130.283,433.964,149.151,433.964,172.427z" data-original="#FEE9A1"/>
		<path style="fill:#FDCA67;" d="M391.821,130.283h-25.907c23.275,0,42.143,18.868,42.143,42.143v304.567    c0,15.191-12.315,27.507-27.507,27.507h25.907c15.192,0,27.507-12.315,27.507-27.507V172.427    C433.964,149.151,415.096,130.283,391.821,130.283z" data-original="#FDCA67" class=""/>
		<path style="fill:#D8E6F0;" d="M382.747,103.677v26.606H273.22v-26.606c0-3.189,2.585-5.774,5.774-5.774h97.978    C380.161,97.903,382.747,100.488,382.747,103.677z" data-original="#D8E6F0"/>
		<path style="fill:#AAC0D1;" d="M376.972,97.903h-20.75c3.189,0,5.774,2.585,5.774,5.774v26.606h20.75v-26.606    C382.747,100.488,380.161,97.903,376.972,97.903z" data-original="#AAC0D1"/>
		<rect x="301.471" y="46.617" style="fill:#AAC0D1;" width="53.025" height="51.286" data-original="#AAC0D1"/>
		<path style="fill:#D8E6F0;" d="M364.956,7.5h-89.129c-1.44,0-2.608,1.168-2.608,2.608v33.901c0,1.44,1.168,2.608,2.608,2.608    h174.456c4.003,0,5.422-5.3,1.955-7.3l-27.316-15.759C406.689,13.038,386.008,7.5,364.956,7.5z" data-original="#D8E6F0"/>
		<path style="fill:#A49CF5;" d="M327.983,394.756L327.983,394.756c27.965,0,50.635-22.67,50.635-50.634v-53.46    c0-27.965-22.67-50.634-50.634-50.634h0c-27.965,0-50.634,22.67-50.634,50.634v53.46    C277.349,372.086,300.019,394.756,327.983,394.756z" data-original="#A49CF5"/>
	</g>
	<g>
		<path style="fill:#D8E6F0;" d="M148.022,363.67h134.887c24.894,0,45.074,20.18,45.074,45.074v74.367    c0,11.813-9.576,21.388-21.388,21.388H124.336c-11.813,0-21.388-9.576-21.388-21.388v-74.367    C102.947,383.85,123.128,363.67,148.022,363.67z" data-original="#D8E6F0"/>
		<path style="fill:#AAC0D1;" d="M282.909,363.67h-23.842c24.894,0,45.074,20.18,45.074,45.074v74.367    c0,11.813-9.576,21.388-21.388,21.388h23.842c11.813,0,21.388-9.576,21.388-21.388v-74.367    C327.983,383.85,307.803,363.67,282.909,363.67z" data-original="#AAC0D1"/>
		<path style="fill:#FF7870;" d="M282.909,363.67H148.022c-24.894,0-45.074,20.18-45.074,45.074v11.343h225.036v-11.343    C327.983,383.85,307.803,363.67,282.909,363.67z" data-original="#FF7870"/>
		<path style="fill:#D7352E;" d="M282.909,363.67h-23.842c24.894,0,45.074,20.18,45.074,45.074v11.343h23.842v-11.343    c0-7.001-1.596-13.63-4.445-19.542C316.259,374.095,300.801,363.67,282.909,363.67z" data-original="#D7352E"/>
	</g>
	<g>
		<path d="M126.245,98.987c-4.142,0-7.5,3.357-7.5,7.5v0.651c0,4.143,3.358,7.5,7.5,7.5c4.142,0,7.5-3.357,7.5-7.5v-0.651    C133.745,102.345,130.387,98.987,126.245,98.987z" data-original="#000000" class="active-path" style="fill:#1F6912" data-old_color="#000000"/>
		<path d="M455.987,32.82l-27.316-15.759C409.324,5.899,387.292,0,364.956,0h-89.128c-5.574,0-10.108,4.534-10.108,10.107v33.901    c0,5.574,4.534,10.108,10.108,10.108h18.143v36.286h-14.977c-7.319,0-13.274,5.955-13.274,13.274v19.105h-1.574    c-27.374,0-49.644,22.27-49.644,49.644v162.891c0,4.143,3.358,7.5,7.5,7.5s7.5-3.357,7.5-7.5V172.427    c0-19.103,15.541-34.644,34.644-34.644h9.074h109.527h9.074c19.103,0,34.644,15.541,34.644,34.644v304.566    c0,11.032-8.975,20.007-20.007,20.007h-58.459c-4.142,0-7.5,3.357-7.5,7.5s3.358,7.5,7.5,7.5h58.459    c19.303,0,35.007-15.704,35.007-35.007V172.427c0-27.374-22.27-49.644-49.644-49.644h-1.574v-19.105    c0-7.319-5.955-13.274-13.274-13.274h-14.977V54.117h88.288c5.238,0,9.668-3.399,11.023-8.459    C462.662,40.598,460.525,35.439,455.987,32.82z M375.247,122.783H280.72v-17.38h20.751h53.025h20.751V122.783z M346.996,90.403    h-38.025V54.117h38.025V90.403z M354.496,39.117h-53.025H280.72V15h84.236c19.708,0,39.148,5.206,56.218,15.054l15.71,9.063    H354.496z" data-original="#000000" class="active-path" style="fill:#1F6912" data-old_color="#000000"/>
		<path d="M349.901,381.281c-3.565,2.108-4.747,6.708-2.639,10.273c1.4,2.367,3.898,3.684,6.463,3.684    c1.297,0,2.612-0.337,3.81-1.045c17.63-10.425,28.583-29.611,28.583-50.072v-53.459c0-32.056-26.079-58.135-58.135-58.135    c-32.055,0-58.134,26.079-58.134,58.135v44.655c0,4.143,3.358,7.5,7.5,7.5s7.5-3.357,7.5-7.5v-44.655    c0-23.784,19.35-43.135,43.134-43.135c23.785,0,43.135,19.351,43.135,43.135v53.459    C371.118,359.305,362.988,373.543,349.901,381.281z" data-original="#000000" class="active-path" style="fill:#1F6912" data-old_color="#000000"/>
		<path d="M282.909,356.17h-80.712v-11.789c0-0.016,0.002-0.032,0.002-0.048v-87.572c0-0.016-0.002-0.032-0.002-0.048V197.83    c0-14.377-10.604-26.324-24.402-28.43v-12.522c0-6.905-5.617-12.522-12.522-12.522h-2.735V86.417    c0-8.706-7.083-15.789-15.79-15.789h-41.006c-8.706,0-15.789,7.083-15.789,15.789v57.938h-2.735    c-6.905,0-12.522,5.617-12.522,12.522v12.533c-12.314,1.905-22.338,11.746-24.125,24.378c-0.58,4.102,2.274,7.896,6.376,8.477    c4.104,0.588,7.896-2.274,8.477-6.375c0.953-6.739,6.81-11.82,13.624-11.82h3.13c0.007,0,0.013,0.001,0.019,0.001h88.099    c0.007,0,0.013-0.001,0.019-0.001h3.123c7.587,0,13.76,6.173,13.76,13.76v51.431H65.29v-26.097c0-4.143-3.358-7.5-7.5-7.5    s-7.5,3.357-7.5,7.5v33.597v87.572V483.24c0,15.858,12.901,28.76,28.76,28.76h2.881c4.142,0,7.5-3.357,7.5-7.5s-3.358-7.5-7.5-7.5    H79.05c-7.587,0-13.76-6.173-13.76-13.76V351.833h121.906v4.337h-39.175c-28.99,0-52.574,23.585-52.574,52.574v11.344v63.023    c0,15.93,12.959,28.889,28.888,28.889h182.259c15.929,0,28.888-12.959,28.888-28.889v-63.023v-11.344    C335.483,379.755,311.899,356.17,282.909,356.17z M104.952,86.417c0-0.436,0.354-0.789,0.789-0.789h41.006    c0.436,0,0.79,0.354,0.79,0.789v57.938h-42.585V86.417z M97.452,159.355h57.585h7.757v9.715H89.695v-9.715H97.452z M65.29,336.833    v-72.572h121.906v72.572H65.29z M306.595,497H124.336c-7.658,0-13.888-6.23-13.888-13.889v-55.523h210.036v55.523    C320.483,490.77,314.253,497,306.595,497z M320.483,412.588H110.448v-3.844c0-20.719,16.856-37.574,37.574-37.574h134.887    c20.719,0,37.574,16.855,37.574,37.574V412.588z" data-original="#000000" class="active-path" style="fill:#1F6912" data-old_color="#000000"/>
	</g>
</g></g> </svg>
